<svg xmlns="http://www.w3.org/2000/svg" xmlns:svg="http://www.w3.org/2000/svg" id="svg8" width="64.641" height="69.938" version="1.1" viewBox="0 0 17.103 18.504"><metadata id="metadata5"/><g id="layer1"><g id="text839" aria-label="♣" style="font-style:normal;font-weight:400;font-size:25.4px;line-height:1.25;font-family:sans-serif;fill:#000;fill-opacity:1;stroke:none;stroke-width:.264583"><path style="font-style:normal;font-variant:normal;font-weight:400;font-stretch:normal;font-size:25.4px;font-family:'DejaVu Sans';-inkscape-font-specification:'DejaVu Sans';stroke-width:.264583" id="path877" d="m 8.5700195,6.5937638e-7 q 2.6541015,0 3.9067385,2.81533194062362 0.16123,0.6449219 0.198437,1.3394532 0,1.4510742 -1.488281,3.4354491 l -0.744141,0.7441406 h 0.03721 q 0.917774,-0.3472656 1.959571,-0.3472656 h 0.235644 q 2.951758,0 4.142383,2.5052731 0.285254,0.818555 0.285254,1.562696 0,2.54248 -2.59209,3.832324 -0.496094,0.148828 -1.37666,0.223242 -3.001367,0 -4.2540039,-3.398242 h -0.037207 v 0.111621 q 0,4.254004 1.0169921,5.605859 v 0.07441 H 7.2801758 l -0.074414,-0.07441 q 1.0541992,-1.5875 1.0541992,-5.71748 v -0.03721 h -0.037207 q -1.2402344,3.435449 -4.2788085,3.435449 -2.3688477,0 -3.63388671,-2.492871 Q 1.0058284e-7,12.774415 1.0058284e-7,12.055079 1.0058284e-7,9.1653326 3.0509766,8.135938 3.8695313,7.9871099 4.5020508,7.9871099 h 0.1116211 q 1.0666016,0 2.0339844,0.3472656 h 0.037207 V 8.2971685 Q 5.6430664,7.4166021 5.2833985,6.5608404 4.5392578,5.1965826 4.5392578,4.1919928 V 4.01836 q 0,-2.4928711 2.6665039,-3.78271481 Q 8.0863281,6.5937638e-7 8.5700195,6.5937638e-7 Z"/></g></g></svg>